<svg width="108" height="45" viewBox="0 0 108 45" fill="none" xmlns="http://www.w3.org/2000/svg">
<path fill-rule="evenodd" clip-rule="evenodd" d="M62.431 13.548V11.106C62.4288 11.0242 62.4433 10.9429 62.4737 10.8669C62.5041 10.7909 62.5498 10.7219 62.6079 10.664C62.666 10.6062 62.7354 10.5608 62.8117 10.5305C62.8881 10.5002 62.9699 10.4858 63.052 10.488H74.0384C74.3905 10.488 74.6735 10.7406 74.6735 11.106V13.1966C74.6692 13.547 74.3711 14.0059 73.8462 14.7314L68.1543 22.8206C70.2712 22.769 72.5026 23.0829 74.4208 24.1588C74.8528 24.4017 74.9608 24.7575 75.004 25.109V27.7154C75.004 28.0701 74.6087 28.4872 74.194 28.2722C70.8134 26.5095 66.3235 26.316 62.5865 28.2905C62.2052 28.4968 61.8056 28.0841 61.8056 27.7294V25.2541C61.8056 24.8564 61.8099 24.1792 62.2096 23.5741L68.8055 14.1607H63.0758C62.7237 14.1607 62.4407 13.9135 62.4407 13.548H62.431ZM22.3509 28.787H19.0091C18.6894 28.7634 18.4367 28.5248 18.4119 28.2206V11.1479C18.4119 10.8061 18.6992 10.5353 19.0556 10.5353H22.1726C22.4967 10.5492 22.7559 10.7975 22.7796 11.1049V13.3363H22.8412C23.6545 11.1791 25.1828 10.173 27.2414 10.173C29.3335 10.173 30.6404 11.1791 31.5811 13.3363C32.3911 11.1791 34.2273 10.173 36.1984 10.173C37.5992 10.173 39.1318 10.7481 40.0672 12.04C41.1256 13.476 40.9096 15.5633 40.9096 17.3927L40.9021 28.169C40.9021 28.5108 40.6148 28.787 40.2583 28.787H36.9101C36.5861 28.7634 36.3085 28.4968 36.3085 28.169V19.1082C36.3085 18.388 36.3733 16.5909 36.2146 15.9084C35.9662 14.7626 35.2177 14.4391 34.2489 14.4391C33.4388 14.4391 32.5942 14.9765 32.2507 15.8385C31.9073 16.7005 31.9408 18.1408 31.9408 19.1092V28.1593C31.9408 28.5011 31.6535 28.7774 31.297 28.7774H27.9488C27.6108 28.7537 27.3472 28.4872 27.3472 28.1593L27.3429 19.1092C27.3429 17.2046 27.6583 14.4015 25.2832 14.4015C22.8812 14.4015 22.9751 17.1337 22.9751 19.1092V28.1593C22.9751 28.5011 22.6878 28.7774 22.3314 28.7774L22.3509 28.787ZM84.1327 10.187C89.0924 10.187 91.7774 14.4262 91.7774 19.8154C91.7774 25.023 88.8105 29.1536 84.1327 29.1536C79.2724 29.1536 76.6101 24.9144 76.6101 19.6327C76.6101 14.3176 79.2951 10.1741 84.1327 10.1741V10.187ZM84.1608 13.6598C81.6983 13.6598 81.5417 17.0004 81.5417 19.0824C81.5417 21.1643 81.5092 25.6227 84.1316 25.6227C86.7216 25.6227 86.8448 22.0296 86.8448 19.8401C86.8448 18.3998 86.7832 16.6769 86.3479 15.3108C85.9721 14.122 85.2236 13.6598 84.1608 13.6598ZM98.2103 28.787H94.8815C94.5575 28.7634 94.2799 28.4968 94.2799 28.169L94.2756 11.092C94.3037 10.7782 94.5813 10.5353 94.9193 10.5353H98.0191C98.3107 10.5492 98.5505 10.7459 98.6164 11.0125V13.6243H98.678C99.6133 11.2898 100.924 10.1763 103.234 10.1763C104.746 10.1763 106.195 10.7137 107.136 12.1884C108 13.5534 108 15.8514 108 17.5034V28.2518C107.962 28.5527 107.685 28.7892 107.356 28.7892H104.01C103.705 28.7655 103.451 28.542 103.418 28.2518V18.9792C103.418 17.1122 103.634 14.3789 101.326 14.3789C100.513 14.3789 99.7656 14.9217 99.3822 15.7439C98.9123 16.7865 98.8508 17.8259 98.8508 18.977V28.1712C98.8465 28.513 98.5548 28.7892 98.1973 28.7892L98.2103 28.787ZM53.6717 20.6204C53.6717 21.9167 53.7041 22.9851 53.0452 24.1481C52.5138 25.0832 51.6681 25.6593 50.7317 25.6593C49.4486 25.6593 48.6958 24.6866 48.6958 23.2495C48.6958 20.4141 51.2491 19.8992 53.6695 19.8992L53.6717 20.6204ZM57.0393 28.7279C56.8179 28.9246 56.4993 28.9386 56.2509 28.8075C55.1416 27.8906 54.9397 27.4639 54.3327 26.5901C52.4987 28.4517 51.1972 29.0085 48.8222 29.0085C46.0064 29.0085 43.8193 27.2823 43.8193 23.8245C43.8193 21.1245 45.286 19.2866 47.3835 18.388C49.198 17.5926 51.7319 17.4529 53.6695 17.2326V16.8026C53.6695 16.0116 53.7311 15.0764 53.2591 14.3929C52.8551 13.7802 52.0742 13.5276 51.383 13.5276C50.1085 13.5276 48.9745 14.1779 48.698 15.5268C48.6418 15.8278 48.4204 16.1212 48.1147 16.1352L44.8745 15.7891C44.6024 15.7278 44.2967 15.5096 44.3777 15.0904C45.1208 11.178 48.6764 10 51.8517 10C53.4783 10 55.6039 10.4299 56.887 11.6552C58.5136 13.1665 58.3581 15.1829 58.3581 17.3777V22.5616C58.3581 24.1201 59.0061 24.8026 59.6185 25.6464C59.8302 25.9473 59.8777 26.3063 59.6045 26.531L57.049 28.7494L57.0447 28.7387L57.0393 28.7279ZM9.85019 20.6312C9.85019 21.9274 9.88259 22.9958 9.22375 24.1588C8.69236 25.0939 7.85207 25.67 6.91025 25.67C5.62714 25.67 4.87973 24.6973 4.87973 23.2602C4.87973 20.4248 7.43301 19.91 9.84803 19.91L9.85019 20.6312ZM13.2178 28.7387C12.9964 28.9354 12.6778 28.9493 12.4294 28.8182C11.3202 27.9014 11.1333 27.4747 10.5112 26.6008C8.67724 28.4624 7.379 29.0192 5.0007 29.0192C2.19037 29.0203 0 27.2941 0 23.8374C0 21.1374 1.47105 19.2995 3.56421 18.4009C5.37872 17.6055 7.91256 17.4658 9.85019 17.2455V16.8155C9.85019 16.0245 9.91175 15.0893 9.44625 14.4058C9.03582 13.7931 8.25818 13.5405 7.57017 13.5405C6.2957 13.5405 5.15839 14.1908 4.87001 15.5397C4.81385 15.8407 4.59244 16.1341 4.29218 16.1481L1.04766 15.802C0.775487 15.7407 0.475229 15.5225 0.550833 15.1033C1.29824 11.1909 4.84949 10.0129 8.02488 10.0129C9.65146 10.0129 11.777 10.4428 13.0601 11.6681C14.6867 13.1794 14.5312 15.1958 14.5312 17.3906V22.5745C14.5312 24.133 15.1792 24.8155 15.7916 25.6593C16.0076 25.9602 16.0552 26.3192 15.7808 26.5439L13.2319 28.7494L13.2211 28.7387" fill="#221F1F"/>
<path fill-rule="evenodd" clip-rule="evenodd" d="M77.1492 34.9383C70.8848 39.5419 61.7755 42 53.9429 42C42.9608 42 33.0728 37.9586 25.5933 31.2345C25.0058 30.7056 25.5318 29.9855 26.2371 30.3961C34.3095 35.0716 44.2904 37.8823 54.5996 37.8823C61.553 37.8823 69.2021 36.4506 76.2355 33.4798C77.2982 33.0305 78.1861 34.172 77.147 34.9394L77.1492 34.9383ZM79.7586 31.9686C78.9594 30.9475 74.4663 31.487 72.4336 31.7257C71.818 31.8009 71.724 31.2667 72.2781 30.883C75.8639 28.37 81.7503 29.0955 82.4383 29.9371C83.1263 30.7787 82.2601 36.6548 78.8892 39.458C78.3708 39.888 77.8782 39.659 78.1083 39.0883C78.8643 37.2073 80.5622 32.9918 79.7586 31.9675" fill="#FF9900"/>
</svg>
