<svg width="79" height="45" viewBox="0 0 79 45" fill="none" xmlns="http://www.w3.org/2000/svg">
<g clip-path="url(#clip0_860_1956)">
<path d="M2.06567 1.16241V20.0533H11.9567C15.8497 20.0533 19.4473 18.6869 19.4473 14.6734C19.4473 11.9601 17.4927 10.7215 15.3428 10.0732C16.6526 9.5478 18.1385 8.44403 18.1385 6.13018C18.1385 3.16867 15.2001 1.16241 11.2438 1.16241H2.06567ZM8.12501 5.56212H10.3527C11.2596 5.56212 11.9511 6.27247 11.9511 6.99342C11.9511 7.66325 11.2325 8.38016 10.3527 8.38016H8.12501V5.56212ZM8.12501 12.3009H11.0656C12.0921 12.3009 12.9535 13.0806 12.9535 13.9717C12.9535 14.918 12.1479 15.7037 10.8874 15.7037H8.12501V12.3009Z" fill="#1C252C"/>
<path d="M6.96655 22.1139V41.0048H16.8575C20.7506 41.0048 24.3482 39.6384 24.3482 35.6249C24.3482 32.9116 22.3935 31.673 20.2436 31.0247C21.5535 30.4993 23.0394 29.3955 23.0394 27.0817C23.0394 24.1202 20.1009 22.1139 16.1447 22.1139H6.96655ZM13.0259 26.5136H15.2536C16.1604 26.5136 16.852 27.2239 16.852 27.9449C16.852 28.6147 16.1334 29.3316 15.2536 29.3316H13.0259V26.5136ZM13.0259 33.2524H15.9665C16.993 33.2524 17.8544 34.032 17.8544 34.9232C17.8544 35.8694 17.0488 36.6552 15.7882 36.6552H13.0259V33.2524Z" fill="#1C252C"/>
<path d="M19.9229 20.051V1.1601H35.1603V5.72242H25.9644V8.19962H33.4316V12.4768H25.9644V15.5065H35.1603V20.051H19.9229Z" fill="#1C252C"/>
<path d="M43.4147 20.5917C47.7037 20.5917 51.1344 18.1452 51.1344 14.1806C51.1344 7.78223 42.8107 8.76683 42.8107 6.77467C42.8107 6.00515 43.62 5.59679 44.4499 5.59679C45.8802 5.59679 46.9137 6.53909 46.9137 6.53909L50.4947 3.12934C49.0624 1.76624 46.8003 0.620239 43.753 0.620239C39.1765 0.620239 36.1824 3.33649 36.1824 6.61308C36.1824 13.0928 44.3861 12.1524 44.3861 14.1855C44.3861 14.8982 43.7004 15.6152 42.4568 15.6152C41.0449 15.6152 39.9264 14.7628 39.0559 14.0397L35.4539 17.4738C36.9043 18.8865 39.2329 20.5917 43.4147 20.5917Z" fill="#1C252C"/>
<path d="M55.7977 20.051V5.7046H50.8076V1.1601H66.847V5.7046H61.857V20.051H55.7977Z" fill="#1C252C"/>
<path d="M24.5564 22.1005H30.5979V33.4172C30.5979 34.5663 31.7416 35.6253 32.934 35.6253C34.0589 35.6253 35.1959 34.669 35.1959 33.3567V22.1005H41.2196V33.2798C41.2196 37.7157 37.5366 41.2543 32.7744 41.2543C27.9851 41.2543 24.5564 37.4033 24.5564 33.038V22.1005Z" fill="#1C252C"/>
<path d="M48.669 40.9913V34.2411L41.5681 22.1005H47.6807L51.6987 28.6053L55.7305 22.1005H61.857L54.7283 34.3105V40.9913H48.669Z" fill="#1C252C"/>
<path d="M61.857 32.4393L58.2927 36.0036V40.8154L61.857 44.3797H76.9341V32.4393H61.857Z" fill="#FFED31"/>
<path d="M61.2717 38.4073C61.2717 38.8502 60.9126 39.2092 60.4697 39.2092C60.0268 39.2092 59.6677 38.8502 59.6677 38.4073C59.6677 37.9643 60.0268 37.6053 60.4697 37.6053C60.9126 37.6053 61.2717 37.9643 61.2717 38.4073Z" fill="#1C252C"/>
</g>
<defs>
<clipPath id="clip0_860_1956">
<rect width="74.8685" height="43.7595" fill="white" transform="translate(2.06567 0.620239)"/>
</clipPath>
</defs>
</svg>
