<svg width="103" height="45" viewBox="0 0 103 45" fill="none" xmlns="http://www.w3.org/2000/svg">
<path d="M13.6949 11.0034C6.50141 11.0034 0.50708 14.0497 0.50708 23.2418C0.50708 30.5239 4.53788 35.1094 13.8803 35.1094C24.8769 35.1094 25.5818 27.8776 25.5818 27.8776H20.2536C20.2536 27.8776 19.1112 31.7716 13.5554 31.7716C9.03031 31.7716 5.7758 28.7198 5.7758 24.4427H26.1394V21.7584C26.1394 17.5267 23.4485 11.0034 13.6949 11.0034ZM13.5088 14.4339C17.8162 14.4339 20.7526 17.0683 20.7526 21.0166H5.8935C5.8935 16.8248 9.72666 14.4339 13.5088 14.4339Z" fill="#E53238"/>
<path d="M26.1349 2.10233V30.4933C26.1349 32.1047 26.0195 34.3676 26.0195 34.3676H31.1015C31.1015 34.3676 31.2842 32.7425 31.2842 31.2571C31.2842 31.2571 33.795 35.179 40.6225 35.179C47.8119 35.179 52.6955 30.1954 52.6955 23.0563C52.6955 16.4145 48.2099 11.0726 40.634 11.0726C33.5399 11.0726 31.3355 14.897 31.3355 14.897V2.10233H26.1349ZM39.3223 14.5843C44.2046 14.5843 47.3094 18.2019 47.3094 23.0563C47.3094 28.262 43.7236 31.6673 39.3573 31.6673C34.1465 31.6673 31.3355 27.6052 31.3355 23.1025C31.3355 18.9069 33.8576 14.5843 39.3223 14.5843Z" fill="#0064D2"/>
<path d="M65.327 11.0034C54.5051 11.0034 53.8112 16.9188 53.8112 17.8643H59.1976C59.1976 17.8643 59.4799 14.4108 64.9555 14.4108C68.5134 14.4108 71.2706 16.0368 71.2706 19.1623V20.2749H64.9555C56.5717 20.2749 52.1395 22.7236 52.1395 27.6925C52.1395 32.5823 56.2346 35.2428 61.769 35.2428C69.3115 35.2428 71.7411 31.0822 71.7411 31.0822C71.7411 32.7372 71.8686 34.368 71.8686 34.368H76.657C76.657 34.368 76.4716 32.3466 76.4716 31.0533V19.8752C76.4716 12.5456 70.5498 11.0034 65.327 11.0034ZM71.2706 23.6127V25.0961C71.2706 27.0309 70.0745 31.8412 63.0342 31.8412C59.1789 31.8412 57.5259 29.9204 57.5259 27.6922C57.5259 23.6388 63.0923 23.6127 71.2706 23.6127Z" fill="#F5AF02"/>
<path d="M73.5706 11.9301H79.6302L88.3269 29.3246L97.0036 11.9301H102.493L86.6886 42.8977H80.9304L85.4908 34.265L73.5706 11.9301Z" fill="#86B817"/>
</svg>
