<svg width="165" height="45" viewBox="0 0 165 45" fill="none" xmlns="http://www.w3.org/2000/svg">
<path d="M19.905 0.308716L15.7025 13.4144H2L13.0618 21.5196L8.9076 34.6906L19.905 26.5854L30.9507 34.6906L26.7482 21.5196L37.7456 13.4144H24.1075L19.905 0.308716Z" fill="#E22130"/>
<path d="M76.1964 12.2541C75.3591 11.4043 74.4574 10.7833 73.3142 10.4238C72.2354 9.99897 70.9634 9.81921 69.5947 9.81921C68.21 9.81921 66.9541 10.0643 65.682 10.6199C64.4261 11.1755 63.3956 11.9599 62.5583 12.8097L62.4939 12.875C62.0753 13.3653 61.7049 13.8555 61.4151 14.3947C61.1736 14.885 60.932 15.3099 60.8193 15.6694C60.7066 15.4242 60.5134 14.9994 60.2719 14.5745C59.8532 13.7738 59.4829 13.1692 59.1931 12.924C58.3558 11.9436 57.3897 11.2736 56.1338 10.7343C54.8778 10.1787 53.5575 9.9336 52.0439 9.9336C51.0779 9.9336 49.6931 10.048 48.1957 10.7833C46.4567 11.6331 45.0075 12.9731 43.9931 14.934V10.5546H42.6084V35.001H43.9931V21.0946C43.9931 19.5095 44.1703 18.1696 44.5406 16.944C44.8948 15.7184 45.4423 14.8033 46.1669 13.8882C46.7626 13.0384 47.6643 12.3684 48.6948 11.9436C49.7092 11.4533 50.8041 11.2082 51.9312 11.2736C53.316 11.3389 54.5075 11.5841 55.6024 12.0743C56.6168 12.5645 57.4702 13.2999 58.1787 14.1496C58.7744 14.9994 59.1931 15.7347 59.4346 16.5845C59.7888 17.614 59.9176 18.8396 59.9176 20.5554V34.952H61.3024V21.1763C61.3024 19.4769 61.3668 18.0715 61.6566 16.9113C61.9626 15.8164 62.3812 14.9667 63.2185 13.8555C63.9431 12.875 64.8447 12.205 66.1007 11.7148C67.1151 11.3553 68.2583 11.1102 69.3371 11.1102C70.5447 11.1102 71.5591 11.2899 72.5252 11.6658C73.4913 12.0416 74.1998 12.5809 74.8761 13.2509C75.7133 14.1006 76.3252 15.1464 76.6794 16.4864C77.0981 17.8264 77.2752 19.3461 77.2752 21.2417V34.952H78.6599L78.9015 21.1763C78.9015 19.1664 78.6599 17.4015 78.1769 15.9308C77.7582 14.4601 77.1464 13.1692 76.1964 12.2541Z" fill="#231F20"/>
<path d="M103.521 16.7642C102.796 15.0647 101.412 13.3489 99.6081 12.1233C97.4988 10.6526 94.987 9.93359 92.3463 9.93359C87.548 9.93359 84.6014 12.1233 82.9107 14.0189C80.8658 16.3393 79.6743 19.5095 79.6743 22.7451C79.6743 25.9806 80.8819 29.1508 82.9107 31.4713C84.537 33.3015 87.5319 35.5566 92.3463 35.5566C94.8098 35.5566 97.0319 34.952 99.0124 33.7917C100.88 32.5661 102.378 30.9811 103.521 28.8567V35.0173H104.906V10.6199H103.521V16.7642ZM102.748 18.1696C102.989 18.8395 103.231 19.5095 103.344 20.1795C103.521 20.9149 103.585 21.6993 103.585 22.3692C103.65 23.17 103.585 23.889 103.473 24.559C103.36 25.3597 103.167 26.0297 102.925 26.6343C102.136 28.8894 100.767 30.834 98.8997 32.1249C97.0963 33.4649 94.8098 34.1349 92.4751 34.1349C88.9972 34.1349 86.115 32.8603 84.0057 30.5398C82.2023 28.4645 81.0591 25.6048 81.0591 22.6144C81.0591 19.3788 82.2667 16.5191 84.2955 14.3784C86.4048 12.3031 89.2226 11.0938 92.3463 11.0938C94.6327 11.0938 96.8547 11.7638 98.6581 12.924C100.526 14.3294 101.959 16.0942 102.748 18.1696Z" fill="#231F20"/>
<path d="M110.203 14.2641C111.459 13.1039 112.731 12.3685 113.987 11.8292C115.243 11.339 116.628 11.0285 118.318 11.0285H118.431C120.476 11.0285 122.569 11.6331 124.324 12.679C126.369 14.019 127.931 15.8492 128.768 18.1696L128.833 18.284H130.394L130.282 18.0389C129.316 15.2936 127.512 13.0385 125.113 11.5841C123.133 10.3585 120.733 9.75391 118.383 9.75391C114.905 9.75391 111.717 11.0939 109.366 13.4797C107.015 15.8655 105.695 19.1501 105.695 22.6798C105.695 25.9644 106.951 29.1346 108.995 31.455C111.346 34.0696 114.647 35.4749 118.608 35.4749C121.184 35.4749 123.712 34.6742 125.757 33.2199C127.802 31.7655 129.364 29.7392 130.266 27.3043L130.378 27.0592H128.817L128.752 27.1736C128.156 28.9385 126.884 30.6543 125.21 31.8635C123.294 33.3833 120.83 34.1186 118.302 34.1186C116.805 34.1186 115.356 33.8081 113.971 33.2689C112.586 32.6643 111.443 31.8635 110.364 30.8831C109.285 29.7882 108.496 28.5626 107.901 27.1083C107.305 25.7029 106.999 24.1178 106.999 22.5327C106.999 20.9476 107.353 19.2972 107.901 17.8428C108.4 16.4701 109.237 15.2445 110.203 14.2641ZM126.417 14.1497C127.496 15.1792 128.398 16.5355 128.994 18.1206C128.398 16.5845 127.496 15.3099 126.417 14.1497Z" fill="#231F20"/>
<path d="M149.845 10.4893H148.283L148.219 10.6036C148.219 10.718 145.868 16.274 143.533 21.8791L138.912 32.9094L134.532 21.8791C131.715 14.5582 130.088 10.6527 130.088 10.6036L130.024 10.4893H128.462L138.075 34.8213L133.743 44.6914H135.305L135.37 44.577C135.37 44.577 135.482 44.2665 135.676 43.7763C136.4 42.0768 138.381 37.3705 140.667 32.076C141.263 30.6706 141.875 29.2163 142.535 27.7456L148.187 14.5092C149.153 12.2541 149.748 10.7834 149.748 10.7344L149.845 10.4893Z" fill="#231F20"/>
<path d="M160.665 23.1046C159.345 22.1241 157.719 21.6339 156.093 21.2744L155.915 21.209C154.048 20.6534 152.856 20.1142 152.067 19.5095C151.165 18.7088 150.682 17.7447 150.618 16.274C150.618 15.604 150.682 14.934 150.924 14.3784C151.101 13.7738 151.471 13.2836 151.89 12.7933C152.373 12.2377 152.969 11.8782 153.565 11.5677C154.289 11.2572 155.014 11.1429 155.787 11.1429H155.899C156.624 11.1429 157.284 11.2572 157.815 11.5024C158.411 11.7475 158.959 12.107 159.377 12.5319C159.796 12.9567 160.166 13.5123 160.392 14.117C160.633 14.7216 160.746 15.3916 160.746 16.1269V16.3067H162.131V16.1596C162.131 14.3948 161.471 12.8097 160.392 11.6494C159.249 10.4892 157.687 9.94995 155.771 9.94995C154.096 9.94995 152.47 10.5056 151.262 11.4697C149.877 12.6299 149.217 14.2804 149.217 16.2903C149.282 18.1859 149.942 19.5749 151.133 20.6208C152.389 21.6502 154.08 22.2058 155.754 22.6307C157.799 23.121 159.232 23.7909 160.134 24.6407C161.1 25.6212 161.519 26.7814 161.583 28.4155V28.5953C161.583 29.396 161.471 30.1803 161.165 30.785C160.859 31.455 160.504 32.0596 159.957 32.5498C159.474 33.1054 158.814 33.5303 158.154 33.8244C157.429 34.1349 156.656 34.2493 155.867 34.2493C154.128 34.2493 152.566 33.6937 151.488 32.6642C150.409 31.5693 149.861 30.0986 149.813 28.3338V28.154L148.428 28.2194V28.5299C148.428 28.5953 148.428 28.6443 148.428 28.7096C148.428 29.5594 148.605 30.3601 148.911 31.1445C149.217 31.9452 149.636 32.6642 150.232 33.2198C150.956 33.9552 151.793 34.5598 152.76 34.9193C153.726 35.2788 154.74 35.5239 155.883 35.5239C156.898 35.5239 157.864 35.2788 158.765 34.9193C159.667 34.4944 160.44 33.9388 161.116 33.2688C161.712 32.5988 162.26 31.7981 162.565 30.9484C162.92 30.0986 163.048 29.1835 162.984 28.2031C162.887 25.8499 162.099 24.2158 160.665 23.1046Z" fill="#231F20"/>
<path d="M149.056 8.65903L150.682 7.49881L152.309 8.65903L151.649 6.71443L153.323 5.48884H151.343L150.682 3.59326L150.087 5.48884H148.106L149.668 6.71443L149.056 8.65903Z" fill="#231F20"/>
</svg>
