<svg width="150" height="45" viewBox="0 0 150 45" fill="none" xmlns="http://www.w3.org/2000/svg">
<path d="M109.867 27.1453C110.192 32.2769 114.032 35.2482 119.064 35.2482C122.689 35.2482 127.883 34.1679 127.883 29.3605C127.883 24.6611 123.122 23.9587 118.361 22.9862C113.546 22.0141 108.785 20.7714 108.785 15.0998C108.785 9.58972 114.141 7.96899 118.848 7.96899C124.745 7.96899 129.127 10.5078 129.127 16.828H127.071C127.017 11.8042 123.501 9.75169 118.848 9.75169C115.061 9.75169 110.841 11.156 110.841 15.0994C110.841 19.5291 115.602 20.231 120.093 21.2035C125.611 22.2298 129.939 23.5262 129.939 29.3605C129.939 35.3564 123.933 37.0309 119.064 37.0309C112.734 37.0309 107.973 33.6279 107.811 27.1457H109.867V27.1453Z" fill="#003399"/>
<path d="M98.0192 14.7755H98.1814C99.2634 11.156 103.808 8.23918 108.84 8.45525V10.5077C106.675 10.2379 103.645 10.7779 101.157 13.2088C99.1012 15.3158 98.2352 17.0444 98.0192 21.2035V36.3827H95.9631V8.61721H98.0192V14.7755Z" fill="#003399"/>
<path d="M91.5277 36.2538H89.472V30.8727H89.3636C88.0652 34.1679 84.3321 37.0305 79.0303 37.0305C73.7823 37.0305 69.7244 35.0321 69.7244 29.1978C69.7244 22.7156 75.3513 21.3655 79.9497 20.9871C89.1472 20.3392 89.5258 19.7447 89.5258 15.2072C89.5258 13.9649 88.1194 9.75168 81.7894 9.75168C76.812 9.75168 73.5117 12.3442 73.2415 17.1519H71.1854C71.4556 11.0481 75.2429 7.96899 81.7894 7.96899C86.6587 7.96899 91.5277 9.4815 91.5277 15.2072V36.2538ZM89.4716 20.6094C87.8484 22.4458 83.4119 22.2301 79.4089 22.7701C74.5395 23.3105 71.7804 25.0391 71.7804 29.1982C71.7804 32.5475 74.2151 35.2486 79.0841 35.2486C88.4438 35.2486 89.4716 27.2539 89.4716 25.7955V20.6094Z" fill="#003399"/>
<path d="M45.8664 22.7698C45.7584 29.306 49.2209 35.2482 56.0918 35.2482C61.3397 35.2482 65.0725 32.1154 66.0465 26.9834H68.1022C67.0201 33.4655 62.692 37.0305 56.0918 37.0305C47.9763 37.0305 43.7023 30.6566 43.8107 22.9858C43.7023 15.3696 47.7057 7.96899 56.0918 7.96899C64.8022 7.96899 68.6976 14.8292 68.3186 22.7698H45.8664ZM66.2629 20.9874C66.1549 15.1539 62.4756 9.75206 56.0918 9.75206C49.9243 9.75206 46.2992 15.4778 45.8664 20.9874H66.2629Z" fill="#003399"/>
<path d="M22.1171 27.1453C22.4419 32.2773 26.2834 35.2482 31.3146 35.2482C34.9393 35.2482 40.1335 34.1679 40.1335 29.3605C40.1335 24.6611 35.3725 23.9587 30.6116 22.9862C25.7964 22.0137 21.0354 20.7714 21.0354 15.0994C21.0354 9.58972 26.391 7.96899 31.0982 7.96899C36.9954 7.96899 41.3777 10.5078 41.3777 16.828H39.322C39.2675 11.8042 35.7511 9.75168 31.0986 9.75168C27.3112 9.75168 23.0915 11.156 23.0915 15.0994C23.0915 19.5291 27.8525 20.231 32.3428 21.2035C37.861 22.2298 42.1892 23.5262 42.1892 29.3602C42.1892 35.3561 36.1836 37.0305 31.3142 37.0305C24.9842 37.0305 20.2232 33.6275 20.061 27.1453H22.1171Z" fill="#003399"/>
</svg>
