<svg width="161" height="45" viewBox="0 0 161 45" fill="none" xmlns="http://www.w3.org/2000/svg">
<path d="M15.7251 31.8379C10.5694 31.8379 6.38533 27.6605 6.38533 22.5039C6.38533 17.338 10.5694 13.1637 15.7251 13.1637C20.8853 13.1637 25.0642 17.338 25.0642 22.5039C25.0642 27.6605 20.8853 31.8379 15.7251 31.8379ZM15.7251 8.5C7.99604 8.5 1.72839 14.7692 1.72839 22.5039C1.72839 30.2327 7.99604 36.5 15.7251 36.5C23.4575 36.5 29.735 30.2327 29.735 22.5039C29.735 14.7692 23.4575 8.5 15.7251 8.5Z" fill="#CC0000"/>
<path d="M15.7252 17.7051C13.0758 17.7051 10.9292 19.8465 10.9292 22.5039C10.9292 25.1525 13.0758 27.3003 15.7252 27.3003C18.377 27.3003 20.5283 25.1524 20.5283 22.5039C20.5283 19.8466 18.377 17.7051 15.7252 17.7051Z" fill="#CC0000"/>
<path d="M40.5949 15.2846H33.735V11.0511H52.4885V15.2846H45.6285V33.9422H40.5949V15.2846Z" fill="#CC0000"/>
<path d="M50.309 33.9422H55.404L57.2007 28.8433H65.7606L67.4924 33.9422H72.7171L64.1572 11.0511H58.9969L50.309 33.9422ZM61.4969 16.6915H61.56L64.444 25.0926H58.5174L61.4969 16.6915Z" fill="#CC0000"/>
<path d="M74.7019 33.942H79.7378V24.9978H84.7678C87.303 24.9978 88.2308 26.0549 88.5826 28.4582C88.8421 30.2861 88.7768 32.4987 89.3866 33.9423H94.417C93.5204 32.6604 93.5535 29.9639 93.456 28.5218C93.2949 26.2102 92.5926 23.8085 90.1221 23.1679V23.1045C92.6579 22.0793 93.7468 20.0619 93.7468 17.3654C93.7468 13.9056 91.148 11.0521 87.0457 11.0521H74.7022L74.7019 33.942ZM79.7378 14.9621H85.2528C87.4934 14.9621 88.7125 15.9243 88.7125 18.134C88.7125 20.4411 87.4934 21.4046 85.2528 21.4046H79.7378V14.9621Z" fill="#CC0000"/>
<path d="M113.749 31.3436C111.984 33.623 109.679 34.4917 107.466 34.4917C100.383 34.4917 96.2139 29.1934 96.2139 22.5888C96.2139 15.7957 100.382 10.5084 107.466 10.5084C112.145 10.5084 116.571 13.3934 117.118 18.5827H112.306C111.728 16.0475 109.837 14.738 107.466 14.738C102.945 14.738 101.244 18.5827 101.244 22.5888C101.244 26.4058 102.945 30.2511 107.466 30.2511C110.737 30.2511 112.625 28.4891 112.915 25.3133H107.852V21.5667H117.467V33.9417H114.259L113.749 31.3436Z" fill="#CC0000"/>
<path d="M120.898 11.0511H138.012V15.2846H125.931V20.1873H137.021V24.1021H125.931V29.7088H138.271V33.9422H120.898V11.0511Z" fill="#CC0000"/>
<path d="M147.376 15.2846H140.516V11.0511H159.272V15.2846H152.408V33.9422H147.376V15.2846Z" fill="#CC0000"/>
</svg>
