<svg width="199" height="45" viewBox="0 0 199 45" fill="none" xmlns="http://www.w3.org/2000/svg">
<g clip-path="url(#clip0_846_1976)">
<path d="M172.008 16.044C173.075 16.044 173.954 15.5626 174.072 14.9405L175.126 4.60083C175.126 3.57885 173.746 2.73987 172.012 2.73987C170.279 2.73987 168.9 3.57885 168.9 4.60101L169.953 14.9405C170.069 15.5624 170.948 16.044 172.012 16.044H172.008V16.044ZM165.569 19.2736C166.104 18.4726 166.064 17.5724 165.499 17.1724L155.706 11.2108C154.688 10.6991 153.161 11.3151 152.294 12.6191C151.425 13.9215 151.579 15.376 152.595 15.888L163.439 20.2696C164.117 20.4876 165.041 20.0679 165.572 19.2675L165.569 19.2736V19.2736ZM178.454 19.268C178.988 20.0685 179.908 20.4883 180.586 20.2701L191.431 15.8885C192.452 15.3768 192.598 13.922 191.736 12.6197C190.866 11.3169 189.336 10.6997 188.321 11.2114L178.526 17.173C177.966 17.5724 177.925 18.4733 178.457 19.2741L178.454 19.268V19.268ZM172.008 28.9599C173.075 28.9599 173.954 29.4373 174.072 30.0599L175.126 40.3981C175.126 41.4232 173.746 42.2603 172.012 42.2603C170.279 42.2603 168.9 41.4232 168.9 40.3981L169.953 30.0599C170.069 29.4373 170.948 28.9599 172.012 28.9599H172.008V28.9599ZM178.454 25.7296C178.988 24.9269 179.908 24.5108 180.586 24.7314L191.431 29.11C192.452 29.6223 192.598 31.0783 191.736 32.3818C190.866 33.6803 189.336 34.2992 188.321 33.7882L178.526 27.8322C177.966 27.4297 177.925 26.5281 178.457 25.7279H178.453L178.454 25.7296ZM165.569 25.7285C166.104 26.5282 166.064 27.4297 165.499 27.8329L155.706 33.7888C154.688 34.2998 153.161 33.6809 152.294 32.3824C151.425 31.0789 151.579 29.6229 152.595 29.1106L163.439 24.7319C164.117 24.5113 165.041 24.9275 165.572 25.7303H165.569" fill="#FDBB30"/>
<path d="M110.234 27.8146C110.234 28.1319 110.201 28.4591 110.101 28.7466C109.686 29.9403 108.262 30.9497 106.48 30.9497C104.994 30.9497 103.814 30.2174 103.814 28.6706C103.814 26.3032 106.817 25.6494 110.235 25.6659L110.234 27.8144V27.8146ZM115.595 23.6891C115.595 19.7854 113.673 16.3506 107.178 16.3506C103.844 16.3506 101.199 17.1632 99.7542 17.8874L100.812 21.0256C102.132 20.3025 104.236 19.7039 106.226 19.7039C109.521 19.696 110.06 21.3228 110.06 22.364V22.6105C102.879 22.6012 98.3397 24.759 98.3397 29.1546C98.3397 31.8405 100.652 34.3562 104.671 34.3562C107.14 34.3562 109.209 33.5008 110.447 32.1292H110.569C110.569 32.1292 111.388 35.107 115.91 33.9677C115.674 32.7293 115.596 31.4074 115.596 29.8178L115.595 23.6891H115.595ZM3.70605 11.0344C3.70605 11.0344 8.39873 27.7207 9.14807 30.4288C10.0222 33.5897 11.5976 34.7534 16.1377 33.9677L19.0676 23.6228C19.8106 21.052 20.3078 19.2191 20.7865 16.6066H20.8699C21.206 19.2468 21.6828 21.06 22.2942 23.6313C22.2942 23.6313 23.4863 28.328 24.0979 30.794C24.7101 33.2593 26.4141 34.814 30.8617 33.9677L37.8437 11.0337H32.2082L29.8235 20.9496C29.1823 23.8348 28.6012 26.0918 28.1526 28.7307H28.0729C27.6654 26.1151 27.1465 23.9501 26.4954 21.1384L24.0146 11.0337H18.1419L15.4867 20.8836C14.7353 23.8776 14.0306 26.2942 13.5842 28.8452H13.503C13.0446 26.443 12.4345 23.4046 11.7743 20.5078C11.7743 20.5078 10.198 13.4623 9.64359 11.0337L3.70605 11.0344V11.0344ZM48.5036 27.8146C48.5036 28.1319 48.4711 28.4591 48.3695 28.7466C47.955 29.9403 46.5298 30.9497 44.748 30.9497C43.2621 30.9497 42.0838 30.2174 42.0838 28.6706C42.0838 26.3032 45.0856 25.6494 48.5043 25.6659L48.5036 27.8144V27.8146ZM53.8642 23.6891C53.8642 19.7854 51.9421 16.3506 45.4487 16.3506C42.1139 16.3506 39.4658 17.1632 38.0224 17.8874L39.079 21.0256C40.3986 20.3025 42.5023 19.7039 44.4938 19.7039C47.7904 19.696 48.33 21.3228 48.33 22.364V22.6105C41.1459 22.6012 36.6086 24.759 36.6086 29.1546C36.6086 31.8405 38.9193 34.3562 42.9353 34.3562C45.4083 34.3562 47.4754 33.5008 48.7147 32.1292H48.8355C48.8355 32.1292 49.6569 35.107 54.1776 33.9677C53.9412 32.7293 53.8642 31.4074 53.8642 29.8178V23.6891V23.6891ZM62.8108 29.0995V11.0344H57.4432V33.9684H62.8108V29.0995ZM133.029 11.0344V27.9524C133.029 30.286 133.536 31.9191 134.617 32.9186C135.564 33.7924 137.12 34.358 138.987 34.358C140.574 34.358 142.135 34.0952 142.872 33.8581L142.803 30.2192C142.254 30.3354 141.625 30.4295 140.764 30.4295C138.935 30.4295 138.323 29.4127 138.323 27.3187V20.8456H142.997V16.457H138.323V11.0344H133.029V11.0344ZM119.174 16.7396V33.9684H124.711V25.1469C124.711 24.6701 124.745 24.2547 124.832 23.8746C125.241 22.0259 126.87 20.8456 129.209 20.8456C129.85 20.8456 130.309 20.9061 130.806 20.9674V16.457C130.389 16.3849 130.105 16.3511 129.586 16.3511C127.52 16.3511 125.169 17.5081 124.183 19.99H124.033V16.7396H119.174ZM66.5692 16.7396V33.9684H71.9638V23.8654C71.9638 23.3913 72.028 22.8899 72.2172 22.4553C72.6643 21.4381 73.7552 20.2468 75.496 20.2468C77.6739 20.2468 78.6909 21.8438 78.6909 24.1486V33.9671H84.0812V23.7411C84.0812 23.2888 84.1525 22.7435 84.3066 22.3446C84.7492 21.1869 85.9243 20.2455 87.5429 20.2455C89.7497 20.2455 90.8089 21.8145 90.8089 24.5273V33.9666H96.2029V23.8187C96.2029 18.4677 93.0716 16.3495 89.5364 16.3495C87.9723 16.3495 86.7363 16.6894 85.6186 17.2838C84.6801 17.7856 83.8383 18.4965 83.1038 19.4311H83.0241C82.1716 17.5743 80.166 16.3504 77.5523 16.3504C74.1946 16.3504 72.6855 17.8274 71.7702 19.08H71.6898V16.7391H66.5692" fill="#1A75CF"/>
<path d="M194.152 33.1276H194.234C194.342 33.1276 194.411 33.0889 194.411 33.0313C194.411 32.9658 194.346 32.9302 194.246 32.9302C194.211 32.9302 194.176 32.9363 194.153 32.9363V33.1293V33.1274L194.152 33.1276ZM194.14 33.5921H193.853V32.7814C193.918 32.7703 194.07 32.7506 194.264 32.7506C194.475 32.7506 194.57 32.7764 194.639 32.817C194.698 32.8524 194.74 32.9129 194.74 32.9946C194.74 33.0778 194.652 33.1483 194.522 33.1791V33.1894C194.628 33.2139 194.686 33.2807 194.716 33.3979C194.745 33.5148 194.763 33.5626 194.781 33.5927H194.456C194.428 33.5626 194.411 33.4908 194.392 33.4193C194.374 33.3372 194.329 33.296 194.233 33.296H194.139L194.14 33.5921V33.5921ZM194.258 32.5172C193.847 32.5172 193.536 32.8083 193.536 33.1795C193.536 33.541 193.848 33.836 194.27 33.836C194.694 33.8421 195.005 33.5412 195.005 33.1735C195.005 32.8076 194.694 32.5172 194.265 32.5172H194.258ZM194.277 32.2971C194.851 32.2971 195.309 32.6893 195.309 33.1734C195.309 33.6631 194.851 34.0559 194.269 34.0559C193.687 34.0559 193.224 33.6626 193.224 33.1735C193.224 32.6893 193.688 32.2973 194.269 32.2973H194.276" fill="#FDBB30"/>
</g>
<defs>
<clipPath id="clip0_846_1976">
<rect width="191.673" height="39.5203" fill="white" transform="translate(3.66333 2.73987)"/>
</clipPath>
</defs>
</svg>
