<svg width="178" height="45" viewBox="0 0 178 45" fill="none" xmlns="http://www.w3.org/2000/svg">
<path d="M63.0369 12.7299H55.3669C54.6696 12.7299 54.1064 13.2892 54.1064 13.9818V15.6866C54.1198 16.1394 54.4953 16.499 54.9512 16.499H56.2116C56.2519 16.499 56.2787 16.5124 56.3055 16.5523C56.3323 16.5923 56.3457 16.6456 56.3323 16.6855L53.3287 25.6223C53.3019 25.6756 53.2482 25.7156 53.1812 25.7023C53.1275 25.7023 53.0739 25.6623 53.0605 25.6223L48.5684 13.5157V13.5023C48.4478 13.2093 48.1662 12.9962 47.8444 12.9829H45.1357C44.8139 13.0096 44.5323 13.2093 44.3982 13.5023V13.5157L39.9062 25.6223C39.8928 25.6756 39.8391 25.7156 39.7855 25.7156C39.7184 25.7156 39.6648 25.6889 39.638 25.6357L36.6344 16.6855C36.6209 16.6456 36.6344 16.5923 36.6612 16.5523C36.688 16.5257 36.7148 16.499 36.755 16.499H38.0155C38.4714 16.499 38.8469 16.1394 38.8603 15.6866V13.9818C38.8603 13.2892 38.2971 12.7299 37.5998 12.7299H29.9298C29.6616 12.7299 29.4069 12.863 29.2459 13.0761C29.0984 13.2759 29.0448 13.5423 29.1253 13.782C29.2325 14.0884 29.3666 14.4613 29.4873 14.8475C29.608 15.2338 29.7421 15.5934 29.8628 15.9263C29.97 16.2593 30.2784 16.4857 30.6405 16.499H31.9278C31.9948 16.499 32.0619 16.539 32.0753 16.6056L38.0423 34.0131C38.1496 34.3461 38.458 34.5858 38.82 34.5858H40.6705C41.0191 34.5858 41.3275 34.3727 41.4482 34.0531C43.0841 29.3383 46.2219 20.3615 46.3425 20.0551C46.3559 19.9885 46.423 19.9353 46.49 19.9353C46.5571 19.9353 46.6241 19.9752 46.6375 20.0418C46.7582 20.3615 49.896 29.3383 51.5319 34.0398C51.6525 34.3594 51.9609 34.5725 52.3096 34.5858H54.16C54.5221 34.5858 54.8305 34.3461 54.9378 34.0131L60.8914 16.6056C60.945 16.499 61.0121 16.499 61.0389 16.499H62.3262C62.6748 16.499 62.9832 16.2726 63.1039 15.9397C63.2246 15.6067 63.3453 15.2205 63.4794 14.8608C63.6135 14.5012 63.7475 14.1017 63.8548 13.7954C63.9353 13.5556 63.8816 13.2892 63.7341 13.0895C63.5598 12.863 63.3185 12.7299 63.0369 12.7299ZM152.824 31.0697H151.43C151.215 31.0697 151.041 30.8965 151.041 30.6701V13.5157C151.041 13.2093 150.786 12.9563 150.464 12.9696H146.388C146.213 12.9696 146.053 13.0495 145.945 13.1827L144.256 15.2737C144.055 15.5135 144.108 15.8731 144.35 16.0728C144.443 16.1528 144.564 16.1927 144.671 16.1927H145.194C145.409 16.206 145.583 16.3792 145.597 16.5923V30.6435C145.597 30.75 145.556 30.8699 145.489 30.9631C145.047 31.5358 144.068 32.7478 143.585 33.3472C143.371 33.5869 143.398 33.9465 143.639 34.1463C143.746 34.2395 143.867 34.2795 144.001 34.2928H151.108C151.255 34.3061 151.403 34.2529 151.51 34.133L153.173 32.0686C153.562 31.6158 153.293 31.0697 152.824 31.0697Z" fill="#7F187F"/>
<path d="M148.292 10.6521C149.98 10.6521 151.349 9.29256 151.349 7.61546C151.349 5.93836 149.98 4.5788 148.292 4.5788C146.603 4.5788 145.234 5.93836 145.234 7.61546C145.234 9.29256 146.603 10.6521 148.292 10.6521Z" fill="#7F187F"/>
<path d="M175.19 14.741C175.19 14.448 175.029 14.1683 174.641 14.1683H173.93V16.0196H174.198V15.3403H174.439L174.909 16.0196H175.217L174.721 15.3137C175.07 15.287 175.19 15.0074 175.19 14.741ZM174.198 15.0739V14.3947H174.667C174.842 14.408 174.962 14.5412 174.962 14.7143V14.741C174.976 14.9141 174.855 15.0606 174.694 15.0739H174.198Z" fill="#7F187F"/>
<path d="M174.507 13.489C173.622 13.489 172.898 14.2082 172.898 15.0873C172.898 15.9663 173.622 16.6855 174.507 16.6855C175.392 16.6855 176.116 15.9663 176.116 15.0873C176.116 14.2082 175.405 13.489 174.507 13.489ZM174.507 16.4458C173.756 16.4458 173.139 15.8464 173.139 15.1006V15.0873C173.125 14.3547 173.715 13.7421 174.453 13.7288H174.507C175.258 13.7288 175.874 14.3414 175.874 15.0873C175.874 15.8331 175.271 16.4458 174.507 16.4458ZM83.07 31.1496C81.89 31.2029 81.3 30.6568 81.3 29.3116V19.6822C81.3 15.4735 77.7466 12.7964 73.7373 12.7964C67.5155 12.7964 65.2761 15.7266 65.0214 19.003C65.008 19.3226 65.2493 19.589 65.5577 19.6023H68.6552C68.9502 19.589 69.1916 19.3626 69.205 19.0829C69.3659 17.3781 70.5191 16.1261 72.45 16.1261C74.5821 16.1261 75.8693 17.2049 75.8693 19.6289V21.72H74.7564C70.9348 21.72 68.3066 22.2128 66.5366 23.3182C64.7666 24.4237 63.8816 26.4614 63.8816 28.8455C63.8816 30.6035 64.485 32.0419 65.7052 33.1874C66.9255 34.3328 68.3468 34.8389 70.2107 34.8389C71.3236 34.8389 72.4232 34.5858 73.4289 34.1063C74.4211 33.6668 75.333 33.0808 76.1375 32.3749C76.2984 32.2284 76.5532 32.2284 76.7007 32.3882C76.7275 32.4149 76.7543 32.4415 76.7677 32.4815C77.6393 33.9998 78.5914 34.4926 80.4016 34.4926C82.0375 34.4926 82.8286 32.9743 83.5393 32.0553C83.8075 31.6957 83.5125 31.123 83.07 31.1496ZM75.8961 29.6046H75.8693C75.8693 29.7378 75.6548 29.9243 75.5743 30.0042C75.0782 30.4171 74.5284 30.7767 73.9384 31.0564C73.402 31.2828 72.8255 31.3893 72.2489 31.376C71.4041 31.376 70.5593 31.0564 70.0095 30.457C69.4464 29.8444 69.1514 29.0319 69.1648 28.2062C69.1648 26.9542 69.6341 26.1151 70.5861 25.4892C71.5382 24.8632 73.0936 24.5702 74.9575 24.5702H75.8827L75.8961 29.6046ZM141.359 31.1496C140.179 31.2029 139.589 30.6568 139.589 29.3116V19.6822C139.589 15.4735 136.036 12.7964 132.027 12.7964C125.805 12.7964 123.565 15.7266 123.311 19.003C123.297 19.3226 123.539 19.589 123.847 19.6023H126.945C127.24 19.589 127.481 19.3626 127.494 19.0829C127.655 17.3781 128.808 16.1261 130.739 16.1261C132.871 16.1261 134.159 17.2049 134.159 19.6289V21.72H133.059C129.238 21.72 126.596 22.2128 124.839 23.3182C123.069 24.4237 122.171 26.4614 122.171 28.8455C122.171 30.6035 122.774 32.0419 123.995 33.1874C125.215 34.3328 126.636 34.8389 128.5 34.8389C129.613 34.8389 130.713 34.5858 131.718 34.1063C132.71 33.6668 133.622 33.0808 134.427 32.3749C134.588 32.2284 134.843 32.2284 134.99 32.3882C135.017 32.4149 135.044 32.4415 135.057 32.4815C135.929 33.9998 136.881 34.4926 138.691 34.4926C140.327 34.4926 141.118 32.9743 141.829 32.0553C142.097 31.6957 141.802 31.123 141.359 31.1496ZM134.199 29.6046H134.172C134.172 29.7378 133.958 29.9243 133.877 30.0042C133.381 30.4171 132.831 30.7767 132.241 31.0564C131.705 31.2828 131.128 31.3893 130.552 31.376C129.707 31.376 128.862 31.0564 128.312 30.457C127.749 29.8444 127.454 29.0319 127.468 28.2062C127.468 26.9542 127.937 26.1151 128.889 25.4892C129.841 24.8632 131.396 24.5702 133.26 24.5702H134.185V29.6046H134.199ZM170.256 12.8897C169.974 12.7432 169.264 12.6766 168.647 12.6766C167.655 12.6766 166.863 12.8098 166.18 13.1028L166.126 13.1294C165.871 13.2493 165.616 13.3825 165.388 13.5556C164.517 14.0884 163.753 14.7543 163.082 15.5268C163.082 15.5268 162.787 15.7532 162.733 15.3803V13.4491C162.733 13.1427 162.479 12.8897 162.17 12.8897H158.094C157.933 12.8897 157.772 12.9563 157.678 13.0895C157.678 13.0895 156.391 14.6744 155.975 15.2204C155.72 15.5401 155.881 16.1394 156.418 16.1394H156.927C157.142 16.1394 157.33 16.3259 157.33 16.539V30.6568C157.33 30.7634 157.303 30.8832 157.236 30.9764C156.833 31.4692 155.814 32.7478 155.318 33.3738C155.13 33.6269 155.171 33.9732 155.425 34.1729C155.519 34.2528 155.64 34.2928 155.761 34.2928H164.57C164.879 34.2928 165.134 34.0397 165.134 33.7334V31.6157C165.134 31.3094 164.879 31.0564 164.57 31.0564H163.176C162.948 31.0564 162.774 30.8832 162.774 30.6568V22.4392C162.935 18.5368 165.281 17.3381 166.408 16.9918L166.568 16.9386L166.609 16.9252C166.917 16.8453 167.225 16.8054 167.547 16.8054C168.888 16.8054 169.384 17.0051 170.122 17.1916C170.43 17.2715 170.685 16.9386 170.685 16.6322V13.4357C170.658 13.1827 170.457 12.9829 170.256 12.8897ZM122.345 12.9563H115.963C115.748 12.9563 115.56 12.7698 115.56 12.5567V9.42682C115.56 7.90849 116.351 6.39016 117.987 6.39016C119.838 6.39016 120.119 7.93512 120.2 9.10717C120.213 9.40018 120.455 9.63991 120.75 9.65323H123.391C123.686 9.63991 123.928 9.40018 123.914 9.09385C123.86 5.17815 121.353 3.5 117.33 3.5C114.876 3.5 113.267 4.25917 112.06 5.72422C110.854 7.18928 110.237 8.82747 110.237 11.7576V12.5434C110.237 12.7565 110.063 12.9296 109.848 12.9296L98.9464 12.9563C98.638 12.9429 98.3698 13.1827 98.3698 13.5023V15.6333C98.3698 15.953 98.638 16.206 98.9464 16.206H100.113C100.341 16.206 100.515 16.3925 100.515 16.6056C100.515 16.6589 100.502 16.7121 100.488 16.7521C100.488 16.7521 97.4848 23.6911 96.278 26.4614C96.1841 26.6612 95.9561 26.7544 95.755 26.6745C95.6611 26.6346 95.5941 26.5546 95.5405 26.4614C94.3068 23.6645 91.2764 16.7521 91.2764 16.7521C91.1959 16.5523 91.2898 16.3126 91.4909 16.2327C91.5311 16.2193 91.5848 16.206 91.6384 16.206H92.4564C92.7782 16.206 93.033 15.953 93.033 15.6333V13.5157C93.033 13.2093 92.7782 12.9563 92.4564 12.9696H82.5873C82.2655 12.9696 82.0107 13.236 82.0241 13.5556C82.0241 13.6488 82.0509 13.7288 82.0911 13.8087C82.3861 14.3281 83.0432 15.5667 83.2309 15.9263C83.3248 16.0995 83.5125 16.206 83.7002 16.2193H85.6043C85.7652 16.2193 85.9127 16.3126 85.9798 16.4591C85.9798 16.4591 92.9927 32.0952 93.2475 32.6413C93.5157 33.3339 93.5157 34.1063 93.2341 34.8122C92.9123 36.0908 90.7534 38.3816 89.56 37.9688C88.7421 37.6891 88.6348 36.2107 87.6559 36.0242C87.4682 35.9976 87.2939 36.0109 87.1196 36.0908C86.9452 36.1574 85.3496 38.1952 85.0009 38.5548C84.8266 38.7812 84.8266 39.0875 85.0009 39.3139C85.8725 40.2063 87.3341 41.405 89.4527 41.4849C92.0541 41.5914 94.6152 41.2452 96.9887 36.7701C96.9887 36.7701 104.538 18.4436 105.436 16.4724C105.517 16.3392 105.651 16.2593 105.812 16.2593H109.794C110.009 16.2593 110.197 16.4324 110.197 16.6455V30.7234C110.197 30.8433 110.156 30.9498 110.089 31.043C109.62 31.6424 108.668 32.8277 108.185 33.4271C107.984 33.6668 108.024 34.0264 108.266 34.2129C108.373 34.2928 108.494 34.3461 108.628 34.3328H117.531C117.853 34.3328 118.108 34.0797 118.108 33.7601V31.669C118.108 31.3494 117.853 31.0963 117.531 31.0963H116.003C115.788 31.0963 115.614 30.9232 115.614 30.6968V16.5923C115.614 16.3792 115.788 16.206 116.003 16.206H120.709C120.884 16.206 121.045 16.1261 121.152 15.9929C121.554 15.4735 122.359 14.4213 122.788 13.8753C122.975 13.6222 122.935 13.2759 122.68 13.0761C122.587 13.0095 122.466 12.9563 122.345 12.9563Z" fill="#7F187F"/>
<path d="M26.2421 19.7355L24.7001 13.9818C24.6464 13.782 24.4989 13.6355 24.2978 13.5822L18.5051 12.0506C18.3174 11.9973 18.1028 12.0506 17.9687 12.1971L14.0801 16.0595L22.2194 24.144L26.108 20.2815C26.2421 20.135 26.2958 19.9219 26.2421 19.7355Z" fill="#82D170"/>
<path d="M1.90478 28.5392L3.44682 34.2928C3.50046 34.4926 3.64796 34.6391 3.84909 34.6924L9.65523 36.224C9.84296 36.2773 10.0575 36.224 10.1916 36.0775L14.0802 32.2151L5.95432 24.1307L2.06569 27.9931C1.91818 28.1396 1.86455 28.3394 1.90478 28.5392Z" fill="#F8CF1C"/>
<path d="M9.64165 12.0506L3.84892 13.5822C3.64779 13.6355 3.50029 13.782 3.44665 13.9818L1.90461 19.7355C1.85097 19.9219 1.90461 20.135 2.05211 20.2682L5.94074 24.1306L14.0667 16.0595L10.178 12.1971C10.0439 12.0506 9.84279 11.9973 9.64165 12.0506Z" fill="#C6D636"/>
<path d="M26.041 27.9398L22.206 24.1307L14.0801 32.2018L17.9151 36.0109C18.0894 36.1841 18.3442 36.2507 18.5855 36.1974L24.2308 34.7057C24.4721 34.6391 24.6599 34.4527 24.7269 34.2129L26.2287 28.6058C26.2824 28.366 26.2153 28.113 26.041 27.9398Z" fill="#D57DEA"/>
<path d="M14.08 16.0595L5.9541 24.1306L14.08 32.2018L22.2193 24.1306L14.08 16.0595Z" fill="#7F187F"/>
<path d="M26.2421 19.7355L24.7001 13.9818C24.6464 13.782 24.4989 13.6355 24.2978 13.5822L18.5051 12.0506C18.3174 11.9973 18.1028 12.0506 17.9687 12.1971L14.0801 16.0595L22.2194 24.144L26.108 20.2815C26.2421 20.135 26.2958 19.9219 26.2421 19.7355Z" fill="#82D170"/>
<path d="M1.90478 28.5392L3.44682 34.2928C3.50046 34.4926 3.64796 34.6391 3.84909 34.6924L9.65523 36.224C9.84296 36.2773 10.0575 36.224 10.1916 36.0775L14.0802 32.2151L5.95432 24.1307L2.06569 27.9931C1.91818 28.1396 1.86455 28.3394 1.90478 28.5392Z" fill="#F8CF1C"/>
<path d="M9.64165 12.0506L3.84892 13.5822C3.64779 13.6355 3.50029 13.782 3.44665 13.9818L1.90461 19.7355C1.85097 19.9219 1.90461 20.135 2.05211 20.2682L5.94074 24.1306L14.0667 16.0595L10.178 12.1971C10.0439 12.0506 9.84279 11.9973 9.64165 12.0506Z" fill="#C6D636"/>
<path d="M26.041 27.9398L22.206 24.1307L14.0801 32.2018L17.9151 36.0109C18.0894 36.1841 18.3442 36.2507 18.5855 36.1974L24.2308 34.7057C24.4721 34.6391 24.6599 34.4527 24.7269 34.2129L26.2287 28.6058C26.2824 28.366 26.2153 28.113 26.041 27.9398Z" fill="#D57DEA"/>
<path d="M14.08 16.0595L5.9541 24.1306L14.08 32.2018L22.2193 24.1306L14.08 16.0595Z" fill="#7F187F"/>
</svg>
